<svg width="1376" height="274" viewBox="0 0 1376 274" fill="none" xmlns="http://www.w3.org/2000/svg">
<path d="M64.0392 55.2581C57.4711 57.1669 52.2552 61.2706 48.3916 67.5695C44.528 73.8683 39.7951 84.271 34.1929 98.7774L31.585 105.649C27.7214 115.765 25.21 123.496 24.0509 128.84L26.0793 130.844L51.2893 128.554L70.4142 243.365H46.9428L36.2213 162.339C35.2554 154.894 34.1929 149.359 33.0338 145.732C32.0679 141.915 30.7156 139.434 28.977 138.288C27.4316 136.952 25.3066 136.475 22.6021 136.857C22.0225 140.483 21.7328 144.301 21.7328 148.309V243.365H0V34.3574H21.7328V57.5486L14.7783 125.118L17.676 125.691L44.3348 34.3574H70.4142V53.5402L64.0392 55.2581Z" fill="#222222"/>
<path d="M157.848 243.365H133.507L125.973 184.671H104.24L100.473 243.365H74.394L106.269 63.2748L93.8086 34.3574H122.496L157.848 243.365ZM111.195 80.1672L104.82 178.945H125.104L119.888 137.429L114.382 80.1672H111.195Z" fill="#222222"/>
<path d="M232.69 243.365H210.957V52.9676H187.486V90.7607C187.486 138.288 187.196 172.169 186.617 192.401C186.23 212.634 185.168 229.622 183.429 243.365H161.986V221.319C167.588 217.501 171.549 209.58 173.867 197.555C176.378 185.339 177.923 167.588 178.503 144.301C179.276 121.014 179.662 84.3664 179.662 34.3574H232.69V243.365Z" fill="#222222"/>
<path d="M274.305 136.284V224.754H305.6V243.365H252.572V34.3574H302.702V52.9676H274.305V129.985H294.879V136.284H274.305Z" fill="#222222"/>
<path d="M367.506 130.558V34.3574H389.238V243.365H367.506V136.284H342.875V243.365H321.142V34.3574H342.875V130.558H367.506Z" fill="#222222"/>
<path d="M475.68 224.754V274H469.885L459.164 243.365H418.596L407.874 274H402.079V224.754H407.874C410.965 220.555 413.09 213.302 414.249 202.995C415.408 192.688 416.084 176.654 416.278 154.894C416.664 132.944 416.857 93.6238 416.857 36.9342V34.3574H466.987V224.754H475.68ZM445.255 224.754V52.9676H424.681C424.681 108.512 424.584 147.45 424.391 169.783C424.198 192.115 423.522 210.439 422.363 224.754H445.255Z" fill="#222222"/>
<path d="M565.897 243.365H541.557L534.023 184.671H512.29L508.523 243.365H482.444L514.318 63.2748L501.858 34.3574H530.546L565.897 243.365ZM519.245 80.1672L512.87 178.945H533.153L527.938 137.429L522.432 80.1672H519.245Z" fill="#222222"/>
<path d="M603.359 34.3574C616.302 34.3574 626.058 37.2205 632.626 42.9467C639.387 48.6729 642.768 57.8349 642.768 70.4326V144.587C642.768 157.758 638.711 167.492 630.598 173.791C622.677 180.09 612.342 183.239 599.592 183.239H599.013V243.365H577.28V34.3574H603.359ZM621.035 77.5904C621.035 68.4284 619.586 62.225 616.689 58.9802C613.791 55.5444 608.672 53.8265 601.331 53.8265H599.013V163.77H603.359C610.121 163.77 614.757 162.434 617.268 159.762C619.78 157.09 621.035 152.986 621.035 147.45V77.5904Z" fill="#222222"/>
<path d="M684.972 108.798C697.721 108.798 708.057 111.948 715.977 118.247C724.091 124.545 728.147 134.28 728.147 147.45V207.289C728.147 219.887 724.767 229.049 718.005 234.775C711.437 240.502 701.682 243.365 688.739 243.365H662.659V34.3574H684.392V108.798H684.972ZM706.415 144.587C706.415 139.052 705.159 134.948 702.648 132.276C700.136 129.604 695.5 128.268 688.739 128.268H684.392V223.896H686.71C694.051 223.896 699.17 222.273 702.068 219.028C704.966 215.592 706.415 209.294 706.415 200.132V144.587Z" fill="#222222"/>
<path d="M840.735 59.5528C840.735 64.3246 839.287 71.0052 836.389 79.5946C833.684 88.1839 827.696 102.213 818.423 121.682H840.446C844.309 100.304 846.241 79.1174 846.241 58.1212C846.241 40.3699 838.804 31.4943 823.929 31.4943C814.849 31.4943 807.412 34.6437 801.617 40.9425C795.821 47.2414 792.923 56.976 792.923 70.1463V212.729C792.923 224.754 794.952 233.344 799.009 238.497C803.259 243.651 809.633 246.228 818.133 246.228C826.633 246.228 833.008 241.838 837.258 233.057C841.701 224.086 843.73 212.538 843.343 198.414L842.474 163.77H838.417L837.548 197.555C837.162 207.099 836.099 214.352 834.361 219.315C832.815 224.277 830.207 226.759 826.537 226.759C823.06 226.759 820.162 225.136 817.844 221.891C815.719 218.646 814.656 212.348 814.656 202.995V67.2832C814.656 61.7478 815.332 57.644 816.685 54.9718C818.037 52.2996 820.452 50.9634 823.929 50.9634C830.111 50.9634 834.457 51.6315 836.968 52.9676C839.48 54.3037 840.735 56.4988 840.735 59.5528Z" fill="#222222"/>
<path d="M895.046 246.228C905.284 246.228 913.591 243.078 919.966 236.78C926.341 230.481 929.529 220.746 929.529 207.576V64.9927C929.529 52.9676 926.921 44.3783 921.705 39.2247C916.682 34.0711 908.955 31.4943 898.523 31.4943C888.285 31.4943 879.978 34.6437 873.603 40.9425C867.228 47.2414 864.041 56.976 864.041 70.1463V212.729C864.041 224.754 866.552 233.344 871.575 238.497C876.79 243.651 884.614 246.228 895.046 246.228ZM896.495 50.9634C899.972 50.9634 902.677 52.5859 904.608 55.8307C906.733 59.0756 907.796 65.3744 907.796 74.7273V210.439C907.796 215.974 907.12 220.078 905.767 222.75C904.415 225.423 902 226.759 898.523 226.759C894.466 226.759 891.279 225.136 888.961 221.891C886.836 218.646 885.773 212.348 885.773 202.995V67.2832C885.773 61.7478 886.546 57.644 888.091 54.9718C889.637 52.2996 892.438 50.9634 896.495 50.9634Z" fill="#222222"/>
<path d="M971.732 117.388C984.482 117.388 994.817 120.537 1002.74 126.836C1010.85 133.135 1014.91 142.869 1014.91 156.04V207.289C1014.91 219.887 1011.53 229.049 1004.77 234.775C998.198 240.502 988.442 243.365 975.499 243.365H949.42V34.3574H1008.24V52.9676H971.153V117.388H971.732ZM993.175 153.177C993.175 147.641 991.919 143.537 989.408 140.865C986.897 138.193 982.26 136.857 975.499 136.857H971.153V223.896H973.471C980.811 223.896 985.931 222.273 988.828 219.028C991.726 215.592 993.175 209.294 993.175 200.132V153.177Z" fill="#222222"/>
<path d="M1055.07 108.798C1067.82 108.798 1078.16 111.948 1086.08 118.247C1094.19 124.545 1098.25 134.28 1098.25 147.45V207.289C1098.25 219.887 1094.87 229.049 1088.11 234.775C1081.54 240.502 1071.78 243.365 1058.84 243.365H1032.76V34.3574H1054.49V108.798H1055.07ZM1076.52 144.587C1076.52 139.052 1075.26 134.948 1072.75 132.276C1070.24 129.604 1065.6 128.268 1058.84 128.268H1054.49V223.896H1056.81C1064.15 223.896 1069.27 222.273 1072.17 219.028C1075.07 215.592 1076.52 209.294 1076.52 200.132V144.587ZM1131.57 34.3574H1109.84V243.365H1131.57V34.3574Z" fill="#222222"/>
<path d="M1214.09 34.3574V52.9676H1190.04V243.365H1168.31V52.9676H1144.26V34.3574H1214.09Z" fill="#222222"/>
<path d="M1292.15 34.3574V243.365H1271.58L1273.31 135.712L1277.37 69.5737H1273.89L1246.08 243.365H1225.5V34.3574H1246.37L1244.34 142.01L1240.28 208.148H1243.76L1271.58 34.3574H1292.15Z" fill="#222222"/>
<path d="M1342.39 26.9133C1332.53 26.7224 1325.19 24.7182 1320.36 20.9007C1315.73 16.8924 1313.41 10.8798 1313.41 2.86312V0H1333.69L1333.11 2.86312C1332.34 6.10798 1331.95 9.25741 1331.95 12.3114C1331.95 15.938 1332.73 18.6102 1334.27 20.3281C1336.01 22.046 1338.72 22.9049 1342.39 22.9049C1346.06 22.9049 1348.66 22.046 1350.21 20.3281C1351.95 18.6102 1352.82 15.938 1352.82 12.3114C1352.82 9.25741 1352.43 6.10798 1351.66 2.86312L1351.08 0H1371.36V2.86312C1371.36 10.8798 1368.95 16.8924 1364.12 20.9007C1359.48 24.7182 1352.24 26.7224 1342.39 26.9133ZM1376 34.3574V243.365H1355.43L1357.16 135.712L1361.22 69.5737H1357.74L1329.93 243.365H1309.35V34.3574H1330.22L1328.19 142.01L1324.13 208.148H1327.61L1355.43 34.3574H1376Z" fill="#222222"/>
</svg>
