<svg width="200" height="64" viewBox="0 0 200 64" fill="none" xmlns="http://www.w3.org/2000/svg">
<path d="M199.353 22.1001C200.066 25.6293 198.171 29.413 193.828 33.2695C189.499 37.1131 182.844 40.9278 174.336 44.4909C157.328 51.6138 133.037 57.6815 105.498 60.9912C77.9591 64.3008 52.4223 64.2215 33.403 61.4266C23.8902 60.0287 16.0342 57.9551 10.379 55.3028C4.69918 52.639 1.36576 49.453 0.647397 45.8999C-0.066136 42.3707 1.82904 38.587 6.17222 34.7305C10.5009 30.8869 17.1561 27.0722 25.664 23.5091C42.6719 16.3862 66.9627 10.3185 94.5022 7.00883C122.041 3.69924 147.578 3.77853 166.597 6.57343C176.11 7.97134 183.966 10.0449 189.621 12.6972C195.301 15.361 198.634 18.547 199.353 22.1001Z" fill="white" stroke="#222222"/>
<path d="M186.205 18.09C186.849 21.6486 185.136 25.4423 181.26 29.2884C177.392 33.1274 171.444 36.9385 163.836 40.4992C148.628 47.6177 126.904 53.6834 102.27 56.9921C77.6373 60.3007 54.7989 60.2208 37.7935 57.4279C29.2879 56.0309 22.2689 53.9596 17.2192 51.3126C12.156 48.6586 9.16912 45.4796 8.52339 41.91C7.87964 38.3514 9.5927 34.5577 13.4683 30.7116C17.3367 26.8726 23.285 23.0615 30.8923 19.5008C46.1005 12.3823 67.825 6.31665 92.4584 3.00795C117.091 -0.300686 139.93 -0.220813 156.935 2.57214C165.441 3.96908 172.46 6.04042 177.509 8.68736C182.573 11.3414 185.559 14.5204 186.205 18.09Z" fill="white" stroke="#222222"/>
<path d="M199.353 22.1001C200.066 25.6293 198.171 29.413 193.828 33.2695C189.499 37.1131 182.844 40.9278 174.336 44.4909C157.328 51.6138 133.037 57.6815 105.498 60.9912C77.9591 64.3008 52.4223 64.2215 33.403 61.4266C23.8902 60.0287 16.0342 57.9551 10.379 55.3028C4.69918 52.639 1.36576 49.453 0.647397 45.8999C-0.066136 42.3707 1.82904 38.587 6.17222 34.7305C10.5009 30.8869 17.1561 27.0722 25.664 23.5091C42.6719 16.3862 66.9627 10.3185 94.5022 7.00883C122.041 3.69924 147.578 3.77853 166.597 6.57343C176.11 7.97134 183.966 10.0449 189.621 12.6972C195.301 15.361 198.634 18.547 199.353 22.1001Z" stroke="#222222"/>
</svg>
