<svg width="1376" height="310" viewBox="0 0 1376 310" fill="none" xmlns="http://www.w3.org/2000/svg">
<path d="M127.022 305.867L122.884 4.13332H96.8177L72.8202 199.64H68.2689L35.1688 4.13332H4.13751L0 305.867H32.6863L21.5151 90.1067H25.6526L59.9939 285.2H69.5102L95.9902 90.1067H100.541L95.1627 305.867H127.022Z" fill="#222222"/>
<path d="M202.256 178.147H197.705L188.603 95.48L174.535 4.13332H141.021L185.706 218.24H198.119L152.193 305.867H191.085L255.217 4.13332H219.22L202.256 178.147Z" fill="#222222"/>
<path d="M305.271 153.76L304.857 150.453C325.544 146.733 340.026 131.44 340.026 93V55.8C340.026 15.2933 323.889 0 299.892 0C278.377 0 268.033 12.8133 268.033 38.44C268.033 59.52 268.861 80.1867 272.171 117.8H301.547C278.377 59.9333 275.894 52.08 275.894 40.5067C275.894 31.4133 280.446 28.1067 288.721 28.1067C308.581 28.1067 308.994 37.2 308.994 51.6667V117.8C308.994 138.053 301.133 148.8 287.479 148.8H278.377V157.067H287.479C303.202 157.067 310.649 166.987 310.649 192.2V247.587C310.649 277.347 301.961 281.893 293.686 281.893C282.928 281.893 278.791 266.187 277.963 239.733L276.722 190.96H270.929L269.688 240.973C268.861 280.24 280.859 310 305.684 310C329.268 310 341.681 297.187 341.681 261.64V212.867C341.681 185.173 339.198 159.547 327.613 151.28L305.271 153.76Z" fill="#222222"/>
<path d="M401.374 151.28H430.75V142.187H401.374V31H441.922V4.13332H370.343V305.867H446.059V279H401.374V151.28Z" fill="#222222"/>
<path d="M561.345 4.13332H531.969L492.249 255.027H487.284L493.076 159.547L495.973 4.13332H466.183V305.867H495.559L535.279 54.9733H540.244L534.452 150.453L531.969 305.867H561.345V4.13332Z" fill="#222222"/>
<path d="M777.021 305.867L772.884 4.13332H746.817L722.82 199.64H718.269L685.168 4.13332H654.137L650 305.867H682.686L671.515 90.1067H675.652L709.994 285.2H719.51L745.99 90.1067H750.541L745.162 305.867H777.021Z" fill="#222222"/>
<path d="M896.527 4.13332H867.151L827.431 255.027H822.466L828.258 159.547L831.155 4.13332H801.365V305.867H830.741L870.461 54.9733H875.426L869.634 150.453L867.151 305.867H896.527V4.13332Z" fill="#222222"/>
<path d="M989.361 143.013H954.192V4.13332H923.161V305.867H954.192V151.28H989.361V305.867H1020.39V4.13332H989.361V143.013Z" fill="#222222"/>
<path d="M1117.34 40.5067C1117.34 31.4133 1110.72 28.1067 1093.34 28.1067C1082.58 28.1067 1080.1 37.2 1080.1 51.6667V247.587C1080.1 277.347 1088.79 281.893 1097.07 281.893C1107.82 281.893 1111.96 266.187 1112.79 239.733L1114.03 190.96H1119.82L1121.06 240.973C1121.89 280.24 1109.89 310 1085.07 310C1061.48 310 1049.07 297.187 1049.07 261.64V55.8C1049.07 15.2933 1069.34 0 1093.34 0C1114.86 0 1125.2 12.8133 1125.2 38.44C1125.2 59.52 1124.37 88.4533 1116.93 130.2H1085.48C1114.44 68.2 1117.34 52.08 1117.34 40.5067Z" fill="#222222"/>
<path d="M1251.16 31.8267V4.13332H1213.92L1175.85 135.987L1171.72 135.16L1181.65 37.6133V4.13332H1150.62V305.867H1181.65V168.64C1181.65 162.853 1182.06 157.48 1182.89 152.107C1194.47 150.453 1198.2 157.48 1202.33 188.893L1217.64 305.867H1251.16L1223.85 140.12L1187.85 143.427L1184.96 140.533C1187.03 131.027 1190.75 120.28 1195.71 107.053C1211.44 66.1333 1219.3 40.5067 1242.05 34.3067L1251.16 31.8267Z" fill="#222222"/>
<path d="M1376 305.867L1325.52 4.13332H1284.56L1302.35 45.88L1256.84 305.867H1294.08L1299.46 221.133H1330.49L1341.24 305.867H1376ZM1309.39 70.2667H1313.94L1321.8 152.933L1329.25 212.867H1300.28L1309.39 70.2667Z" fill="#222222"/>
</svg>
