<svg width="1376" height="272" viewBox="0 0 1376 272" fill="none" xmlns="http://www.w3.org/2000/svg">
<path d="M59.0097 125.483V3.62666H86.6705V268.373H59.0097V132.736H27.6608V268.373H0V3.62666H27.6608V125.483H59.0097Z" fill="#222222"/>
<path d="M151.696 272C164.728 272 175.3 268.011 183.414 260.032C191.528 252.053 195.585 239.723 195.585 223.04V42.432C195.585 27.2 192.266 16.32 185.627 9.79199C179.234 3.264 169.399 0 156.122 0C143.091 0 132.518 3.98933 124.404 11.968C116.291 19.9467 112.234 32.2773 112.234 48.96V229.568C112.234 244.8 115.43 255.68 121.823 262.208C128.461 268.736 138.419 272 151.696 272ZM153.541 24.6613C157.966 24.6613 161.409 26.7164 163.867 30.8267C166.572 34.9369 167.924 42.9156 167.924 54.7627V226.667C167.924 233.678 167.064 238.876 165.342 242.261C163.621 245.646 160.548 247.339 156.122 247.339C150.959 247.339 146.902 245.284 143.951 241.173C141.247 237.063 139.895 229.084 139.895 217.237V45.3333C139.895 38.3218 140.878 33.1236 142.845 29.7387C144.812 26.3538 148.377 24.6613 153.541 24.6613Z" fill="#222222"/>
<path d="M290.976 127.296C301.057 134.549 306.097 152.441 306.097 180.971V222.677C306.097 238.635 301.671 250.24 292.82 257.493C283.968 264.747 271.06 268.373 254.095 268.373H220.902V3.62666H254.095C269.339 3.62666 280.895 7.25333 288.763 14.5067C296.631 21.76 300.565 33.3653 300.565 49.3227V74.3467C300.565 87.4027 297.614 97.92 291.714 105.899C285.813 113.636 277.33 120.284 266.266 125.845V129.472L290.976 127.296ZM248.563 28.288V126.571L255.57 123.669C262.209 120.768 266.757 117.141 269.216 112.789C271.675 108.437 272.904 102.876 272.904 96.1067V58.3893C272.904 46.784 271.306 38.9262 268.11 34.816C265.159 30.464 259.627 28.288 251.513 28.288H248.563ZM278.436 158.485C278.436 142.528 271.921 134.549 258.889 134.549C255.201 134.549 251.759 135.758 248.563 138.176V243.712H251.513C261.594 243.712 268.601 241.657 272.535 237.547C276.469 233.195 278.436 225.216 278.436 213.611V158.485Z" fill="#222222"/>
<path d="M370.329 272C383.361 272 393.933 268.011 402.047 260.032C410.161 252.053 414.218 239.723 414.218 223.04V42.432C414.218 27.2 410.898 16.32 404.26 9.79199C397.867 3.264 388.032 0 374.755 0C361.724 0 351.151 3.98933 343.037 11.968C334.923 19.9467 330.867 32.2773 330.867 48.96V229.568C330.867 244.8 334.063 255.68 340.456 262.208C347.094 268.736 357.052 272 370.329 272ZM372.173 24.6613C376.599 24.6613 380.041 26.7164 382.5 30.8267C385.205 34.9369 386.557 42.9156 386.557 54.7627V226.667C386.557 233.678 385.696 238.876 383.975 242.261C382.254 245.646 379.181 247.339 374.755 247.339C369.592 247.339 365.535 245.284 362.584 241.173C359.88 237.063 358.527 229.084 358.527 217.237V45.3333C358.527 38.3218 359.511 33.1236 361.478 29.7387C363.445 26.3538 367.01 24.6613 372.173 24.6613Z" fill="#222222"/>
<path d="M500.388 35.5413C500.388 41.5858 498.544 50.048 494.856 60.928C491.414 71.808 483.792 89.5787 471.99 114.24H500.02C504.937 87.1609 507.396 60.3236 507.396 33.728C507.396 11.2427 497.93 0 478.997 0C467.441 0 457.975 3.98933 450.599 11.968C443.223 19.9467 439.535 32.2773 439.535 48.96V229.568C439.535 244.8 442.116 255.68 447.28 262.208C452.689 268.736 460.803 272 471.621 272C482.44 272 490.553 266.439 495.963 255.317C501.618 243.954 504.199 229.326 503.708 211.435L502.601 167.552H497.438L496.331 210.347C495.84 222.436 494.487 231.623 492.275 237.909C490.308 244.196 486.988 247.339 482.317 247.339C477.891 247.339 474.203 245.284 471.252 241.173C468.548 237.063 467.195 229.084 467.195 217.237V45.3333C467.195 38.3218 468.056 33.1236 469.777 29.7387C471.498 26.3538 474.572 24.6613 478.997 24.6613C486.865 24.6613 492.397 25.5076 495.594 27.2C498.79 28.8924 500.388 31.6729 500.388 35.5413Z" fill="#222222"/>
<path d="M607.768 3.62666V27.2H577.157V268.373H549.496V27.2H518.885V3.62666H607.768Z" fill="#222222"/>
<path d="M707.114 3.62666V268.373H680.928L683.141 132.011L688.305 48.2347H683.879L648.473 268.373H622.288V3.62666H648.842L646.26 139.989L641.097 223.765H645.523L680.928 3.62666H707.114Z" fill="#222222"/>
<path d="M899.364 268.373H870.965L875.76 79.0613H871.703L848.099 250.24H839.617L809.005 79.0613H805.317L815.275 268.373H786.139L789.827 3.62666H817.488L846.993 175.168H851.05L872.441 3.62666H895.676L899.364 268.373Z" fill="#222222"/>
<path d="M966.427 156.309L981.548 3.62666H1013.63L956.469 268.373H921.801L962.739 191.488H951.674L911.843 3.62666H941.717L954.256 83.776L962.37 156.309H966.427Z" fill="#222222"/>
<path d="M1078.17 132.736C1082.84 136.121 1086.04 142.528 1087.76 151.957C1089.72 161.145 1090.71 172.75 1090.71 186.773V229.568C1090.71 244.8 1088 255.68 1082.59 262.208C1077.43 268.736 1069.44 272 1058.62 272C1047.8 272 1039.57 266.439 1033.91 255.317C1028.5 243.954 1026.04 229.326 1026.53 211.435L1027.64 167.552H1032.8L1033.91 210.347C1034.4 222.436 1035.63 231.623 1037.6 237.909C1039.81 244.196 1043.25 247.339 1047.93 247.339C1052.35 247.339 1055.92 245.284 1058.62 241.173C1061.57 237.063 1063.05 229.084 1063.05 217.237V168.64C1063.05 157.76 1061.33 149.902 1057.88 145.067C1054.69 140.231 1049.52 137.813 1042.39 137.813H1034.28V130.56H1042.39C1048.54 130.56 1053.21 128.263 1056.41 123.669C1059.85 118.834 1061.57 112.064 1061.57 103.36V45.3333C1061.57 40.256 1061.2 36.3876 1060.47 33.728C1059.97 30.8267 1058.38 28.6507 1055.67 27.2C1053.21 25.5076 1049.15 24.6613 1043.5 24.6613C1035.88 24.6613 1032.07 28.288 1032.07 35.5413C1032.07 40.6187 1033.3 46.9049 1035.75 54.4C1038.21 61.8951 1044.61 78.2151 1054.93 103.36H1028.75C1026.29 75.7973 1025.06 52.5867 1025.06 33.728C1025.06 11.2427 1034.53 0 1053.46 0C1077.31 0 1089.23 16.32 1089.23 48.96V81.6C1089.23 111.58 1078.78 128.384 1057.88 132.011L1058.25 134.912L1078.17 132.736Z" fill="#222222"/>
<path d="M1143.92 132.736V244.8H1183.75V268.373H1116.26V3.62666H1180.06V27.2H1143.92V124.757H1170.1V132.736H1143.92Z" fill="#222222"/>
<path d="M1231.19 132.736V244.8H1271.02V268.373H1203.53V3.62666H1267.33V27.2H1231.19V124.757H1257.38V132.736H1231.19Z" fill="#222222"/>
<path d="M1360.88 127.296C1370.96 134.549 1376 152.441 1376 180.971V222.677C1376 238.635 1371.57 250.24 1362.72 257.493C1353.87 264.747 1340.96 268.373 1324 268.373H1290.8V3.62666H1324C1339.24 3.62666 1350.8 7.25333 1358.67 14.5067C1366.53 21.76 1370.47 33.3653 1370.47 49.3227V74.3467C1370.47 87.4027 1367.52 97.92 1361.62 105.899C1355.72 113.636 1347.23 120.284 1336.17 125.845V129.472L1360.88 127.296ZM1318.47 28.288V126.571L1325.47 123.669C1332.11 120.768 1336.66 117.141 1339.12 112.789C1341.58 108.437 1342.81 102.876 1342.81 96.1067V58.3893C1342.81 46.784 1341.21 38.9262 1338.01 34.816C1335.06 30.464 1329.53 28.288 1321.42 28.288H1318.47ZM1348.34 158.485C1348.34 142.528 1341.82 134.549 1328.79 134.549C1325.1 134.549 1321.66 135.758 1318.47 138.176V243.712H1321.42C1331.5 243.712 1338.5 241.657 1342.44 237.547C1346.37 233.195 1348.34 225.216 1348.34 213.611V158.485Z" fill="#222222"/>
</svg>
