<svg width="24" height="24" viewBox="0 0 24 24" fill="none" xmlns="http://www.w3.org/2000/svg">
<path fill-rule="evenodd" clip-rule="evenodd" d="M11.0705 2C6.61329 2 3 5.59961 3 10.0399C3 14.4803 6.61329 18.0799 11.0705 18.0799C12.8303 18.0799 14.4586 17.5188 15.7848 16.5664L21.0815 21.843C21.2916 22.0523 21.6323 22.0523 21.8424 21.843C22.0525 21.6337 22.0525 21.2943 21.8424 21.085L16.6175 15.8799C18.1716 14.4144 19.141 12.34 19.141 10.0399C19.141 5.59961 15.5277 2 11.0705 2ZM4.07607 10.0399C4.07607 6.19165 7.20759 3.07199 11.0705 3.07199C14.9334 3.07199 18.065 6.19165 18.065 10.0399C18.065 13.8882 14.9334 17.0079 11.0705 17.0079C7.20759 17.0079 4.07607 13.8882 4.07607 10.0399Z" fill="#222222"/>
</svg>
