<svg width="80" height="56" viewBox="0 0 80 56" fill="none" xmlns="http://www.w3.org/2000/svg">
<path d="M79.4392 19.6473C80.0318 25.9972 76.2506 32.9739 69.4757 39.1215C62.7167 45.2546 53.0556 50.4852 42.097 53.3387C31.1354 56.193 21.0017 56.1156 13.4838 53.722C5.96411 51.3278 1.14915 46.6581 0.560763 40.3527C-0.0317731 34.0028 3.74939 27.0261 10.5243 20.8785C17.2833 14.7454 26.9444 9.51476 37.903 6.66128C48.8646 3.80701 58.9983 3.88436 66.5162 6.27801C74.0359 8.67223 78.8508 13.3419 79.4392 19.6473Z" stroke="white"/>
<path d="M77.4451 15.6427C77.9804 22.0165 74.565 29.0001 68.4755 35.1397C62.3966 41.2686 53.7105 46.4929 43.8617 49.3423C34.0095 52.1927 24.9101 52.113 18.1657 49.7271C11.4313 47.3446 7.08665 42.6892 6.55488 36.3573C6.01959 29.9835 9.43496 22.9999 15.5245 16.8603C21.6034 10.7314 30.2895 5.50715 40.1383 2.65771C49.9905 -0.192728 59.0899 -0.113033 65.8343 2.27295C72.5687 4.65536 76.9133 9.31077 77.4451 15.6427Z" stroke="white"/>
<path d="M31.3067 16.6667H29.3867L27.0044 31.8489H26.6133L23.8044 16.6667H21.6L21.2444 38H23.7689L22.8089 24.0622H23.3067L25.9733 38H26.7556L28.9956 24.0622H29.5644L29.1022 38H31.6622L31.3067 16.6667Z" fill="white"/>
<circle cx="41" cy="29" r="4" fill="#DC5990"/>
<g filter="url(#filter0_f_0_1304)">
<circle cx="41.6" cy="28.9984" r="2.6" fill="#FCFCFC"/>
</g>
<path d="M60.3067 16.6667H58.3867L56.0044 31.8489H55.6133L52.8044 16.6667H50.6L50.2444 38H52.7689L51.8089 24.0622H52.3067L54.9733 38H55.7556L57.9956 24.0622H58.5644L58.1022 38H60.6622L60.3067 16.6667Z" fill="white"/>
<defs>
<filter id="filter0_f_0_1304" x="38" y="25.3984" width="7.2002" height="7.20001" filterUnits="userSpaceOnUse" color-interpolation-filters="sRGB">
<feFlood flood-opacity="0" result="BackgroundImageFix"/>
<feBlend mode="normal" in="SourceGraphic" in2="BackgroundImageFix" result="shape"/>
<feGaussianBlur stdDeviation="0.5" result="effect1_foregroundBlur_0_1304"/>
</filter>
</defs>
</svg>
